<svg xmlns="http://www.w3.org/2000/svg" width="946" height="274" viewBox="0 0 946 274">
  <g fill="none" fill-rule="evenodd">
    <path fill="#02A6B7" d="M203 137a50 50 0 1 1-100 0 50 50 0 0 1 100 0"/>
    <path stroke="#595959" stroke-width="6" d="M153 72c82.8 0 150 29 150 65 0 35.8-67.2 65-150 65S3 172.7 3 137c0-36 67.2-65 150-65z"/>
    <path stroke="#595959" stroke-width="6" d="M96.7 104.4C138.1 32.7 197-10.9 228 7c31 18 22.7 90.7-18.7 162.4C167.9 241.2 109 284.8 78 266.8c-31-18-22.7-90.6 18.7-162.4z"/>
    <path stroke="#595959" stroke-width="6" d="M96.7 169.4C138.1 241.2 197 284.8 228 266.8c31-18 22.7-90.6-18.7-162.4C167.9 32.7 109-10.9 78 7 47 25 55.3 97.7 96.7 169.4z"/>
    <path fill="#EBFDFF" d="M132 136.8a5 5 0 0 1 0-9.8v-25h2v25a5 5 0 0 1 0 9.8V172h-2v-35zm20-15a5 5 0 0 1 0-9.8v-10h2v10a5 5 0 0 1 0 9.8V172h-2v-50zm20 30a5 5 0 0 1 0-9.8v-40h2v40a5 5 0 0 1 0 9.8V172h-2v-20z"/>
    <path fill="#595959" d="M720.6 123.1h-19.8v41c0 2.6.3 4.7.8 6.4a10 10 0 0 0 2.1 4c1 1 2.1 1.6 3.4 2a16 16 0 0 0 8.6-.1c1.6-.4 3-1 4.5-1.7l.4 8.9a30.2 30.2 0 0 1-18 1.3 15.1 15.1 0 0 1-10.3-8.5 22 22 0 0 1-1.7-9.5v-43.8h-14.5v-8.5h14.5V94.8h10.2v19.8h19.8v8.5zm-56 7.5a22 22 0 0 0-18-9.3c-4.2 0-7.9.7-11.2 2.2a25.1 25.1 0 0 0-13.9 15 32.5 32.5 0 0 0-1.8 11.2c0 4 .6 7.7 1.8 11a26.4 26.4 0 0 0 13.8 15 28 28 0 0 0 22.5-.4c3-1.7 5.6-3.9 7.6-6.6l7.7 5.7a34 34 0 0 1-11 8.9 41.1 41.1 0 0 1-31.1.5 34.2 34.2 0 0 1-19.4-19.4 39.2 39.2 0 0 1-2.7-14.7c0-5.3.9-10.2 2.7-14.7a35 35 0 0 1 19.3-19.5c4.6-1.8 9.8-2.7 15.5-2.7 4.7 0 9.4 1 14.3 3a29 29 0 0 1 11.8 9.1l-8 5.7zm-89.5 19c-4.2 0-8.4.2-12.7.6-4.2.3-8 1-11.5 2-3.5 1.1-6.3 2.7-8.5 4.7s-3.3 4.6-3.3 8c0 2.4.5 4.5 1.4 6.2 1 1.7 2.3 3 3.9 4.1 1.6 1 3.3 1.8 5.3 2.3a26.3 26.3 0 0 0 15.5-1.2 21.4 21.4 0 0 0 11.4-12.5c1-2.8 1.5-5.8 1.5-8.9v-5.2h-3zm3-10.3c0-6-1.6-10.5-4.8-13.5-3.2-3-7.8-4.5-14-4.5a30.1 30.1 0 0 0-20.8 8.3l-5.7-6.8c3-2.9 6.7-5.3 11.5-7.2a43.2 43.2 0 0 1 26.8-1.3c3.3 1.1 6.2 2.7 8.7 4.8a20 20 0 0 1 5.8 8 28 28 0 0 1 2.1 11.2V169a120.9 120.9 0 0 0 1.2 15.8h-9.1a75 75 0 0 1-1-11.4h-.4a28.5 28.5 0 0 1-25.5 13.2c-2.7 0-5.5-.4-8.3-1.2a20.8 20.8 0 0 1-13.7-10.3c-1.5-2.7-2.3-6-2.3-9.9a19 19 0 0 1 4.1-12.9c2.8-3.1 6.5-5.5 11-7 4.7-1.6 10-2.6 15.9-3 6-.5 12.1-.7 18.5-.7v-2.3zm-75.6 5a25.4 25.4 0 0 0-6.4-16.5c-4-4.3-9.5-6.5-16.8-6.5a23.6 23.6 0 0 0-17.1 7 25.4 25.4 0 0 0-7.5 16h47.8zm10.4 3.3v2.2c0 .8 0 1.7-.2 2.6h-58.2a27.3 27.3 0 0 0 7.5 18 26 26 0 0 0 31.9 3.8c3.8-2.5 6.8-5.3 8.8-8.5l7.6 6a38 38 0 0 1-13.9 11.4 38.8 38.8 0 0 1-30.7.7 33.9 33.9 0 0 1-19-19.4 38.3 38.3 0 0 1-2.8-14.7c0-5.3.9-10.2 2.7-14.7a35.6 35.6 0 0 1 18.7-19.5 35 35 0 0 1 14-2.7c5.5 0 10.3.9 14.5 2.7a30 30 0 0 1 16.9 18.6c1.4 4.2 2.2 8.7 2.2 13.5zm-140.6-21.8h18.8a36 36 0 0 0 20-4.7 16 16 0 0 0 7.1-14.2c0-3.5-.6-6.4-2-8.8a16 16 0 0 0-5.3-5.9 24.6 24.6 0 0 0-8.4-3.3c-3.3-.7-7-1-11-1h-19.2v38zm0 59h-10.8V78.6h31.2c5.2 0 10 .5 14.5 1.5 4.4 1 8.3 2.6 11.5 4.8a23 23 0 0 1 7.6 8.8c1.8 3.6 2.7 8 2.7 13.2a26.3 26.3 0 0 1-16.3 24.6 37 37 0 0 1-10.8 2.7l31 50.6h-13.2L390.3 135h-18v49.7z"/>
    <path fill="#02A6B7" d="M912.6 130.6c0-4.6-.7-8.8-2.1-12.7a27.7 27.7 0 0 0-15.7-16.6 31.2 31.2 0 0 0-12.2-2.3 30.2 30.2 0 0 0-21.4 8.8 29.6 29.6 0 0 0-6.3 10 37.8 37.8 0 0 0 0 25.9 27.3 27.3 0 0 0 15.6 16.8 30.7 30.7 0 0 0 24 0 28 28 0 0 0 15.9-16.8c1.5-3.9 2.2-8.3 2.2-13zm-30.9 54.2c-8.4 0-16-1.2-23-3.6a47.9 47.9 0 0 1-29.5-27.7 61 61 0 0 1-4.2-23.2c0-8 1.5-15.5 4.4-22.2a51 51 0 0 1 30.4-28.4c7-2.7 14.6-4 22.8-4a64 64 0 0 1 22.8 4 50 50 0 0 1 30 28.2 55.2 55.2 0 0 1 3 33.4 45.2 45.2 0 0 1-8.7 17.4 40.2 40.2 0 0 1-5.7 5.7v.4l22.4-.4v20.4h-64.7zm-142.2 0V78.6H811v21.6h-46.6v20h44v20.6h-44v22h49.3v22h-74z"/>
  </g>
</svg>
